<svg width="181" height="30" viewBox="0 0 181 30" fill="none" xmlns="http://www.w3.org/2000/svg">
<g clip-path="url(#clip0_1_17860)">
<path d="M41.0486 12.0431C41.0486 10.143 41.4729 8.44587 42.3214 6.95164C43.1885 5.43896 44.3599 4.26755 45.8356 3.43742C47.3299 2.58884 48.9994 2.16455 50.8441 2.16455C53.0024 2.16455 54.8933 2.71797 56.5167 3.82481C58.14 4.93166 59.2745 6.46278 59.9202 8.4182H55.4652C55.0224 7.49584 54.3952 6.80406 53.5835 6.34288C52.7903 5.88169 51.8679 5.6511 50.8164 5.6511C49.6911 5.6511 48.6858 5.91859 47.8003 6.45356C46.9333 6.97009 46.2507 7.70798 45.7526 8.66724C45.273 9.6265 45.0332 10.7518 45.0332 12.0431C45.0332 13.3159 45.273 14.4412 45.7526 15.4189C46.2507 16.3782 46.9333 17.1253 47.8003 17.6603C48.6858 18.1768 49.6911 18.4351 50.8164 18.4351C51.8679 18.4351 52.7903 18.2045 53.5835 17.7433C54.3952 17.2637 55.0224 16.5627 55.4652 15.6403H59.9202C59.2745 17.6142 58.14 19.1545 56.5167 20.2614C54.9117 21.3498 53.0209 21.894 50.8441 21.894C48.9994 21.894 47.3299 21.4789 45.8356 20.6488C44.3599 19.8002 43.1885 18.6288 42.3214 17.1345C41.4729 15.6403 41.0486 13.9432 41.0486 12.0431Z" fill="white"/>
<path d="M70.0361 21.9773C68.5603 21.9773 67.2321 21.6544 66.0515 21.0088C64.8708 20.3447 63.9393 19.4131 63.2567 18.214C62.5926 17.0149 62.2605 15.6314 62.2605 14.0634C62.2605 12.4953 62.6018 11.1118 63.2844 9.91267C63.9854 8.71359 64.9354 7.79122 66.1345 7.14557C67.3336 6.48146 68.671 6.14941 70.1468 6.14941C71.6226 6.14941 72.96 6.48146 74.1591 7.14557C75.3582 7.79122 76.299 8.71359 76.9815 9.91267C77.6825 11.1118 78.033 12.4953 78.033 14.0634C78.033 15.6314 77.6733 17.0149 76.9539 18.214C76.2529 19.4131 75.2936 20.3447 74.0761 21.0088C72.877 21.6544 71.5303 21.9773 70.0361 21.9773ZM70.0361 18.6014C70.7371 18.6014 71.392 18.4354 72.0007 18.1033C72.628 17.7528 73.126 17.2363 73.495 16.5538C73.8639 15.8712 74.0484 15.0411 74.0484 14.0634C74.0484 12.606 73.661 11.49 72.8862 10.7152C72.1299 9.92189 71.1983 9.52527 70.0914 9.52527C68.9846 9.52527 68.053 9.92189 67.2967 10.7152C66.5588 11.49 66.1898 12.606 66.1898 14.0634C66.1898 15.5207 66.5496 16.646 67.269 17.4392C68.0069 18.214 68.9293 18.6014 70.0361 18.6014Z" fill="white"/>
<path d="M99.9122 6.177C101.794 6.177 103.307 6.75809 104.45 7.92027C105.612 9.06401 106.194 10.6689 106.194 12.7351V21.7281H102.32V13.2608C102.32 12.0617 102.015 11.1486 101.406 10.5214C100.798 9.87569 99.9675 9.55286 98.916 9.55286C97.8645 9.55286 97.0251 9.87569 96.3979 10.5214C95.7892 11.1486 95.4848 12.0617 95.4848 13.2608V21.7281H91.6109V13.2608C91.6109 12.0617 91.3065 11.1486 90.6977 10.5214C90.089 9.87569 89.2588 9.55286 88.2073 9.55286C87.1374 9.55286 86.2888 9.87569 85.6616 10.5214C85.0528 11.1486 84.7484 12.0617 84.7484 13.2608V21.7281H80.8745V6.39837H84.7484V8.25233C85.2465 7.60667 85.883 7.09937 86.6577 6.73042C87.451 6.36147 88.318 6.177 89.2588 6.177C90.4579 6.177 91.5278 6.43526 92.4687 6.95179C93.4095 7.44987 94.1381 8.16931 94.6547 9.11013C95.1527 8.22466 95.8722 7.51443 96.813 6.97946C97.7723 6.44449 98.8053 6.177 99.9122 6.177Z" fill="white"/>
<path d="M113.744 8.61213C114.242 7.91113 114.924 7.33004 115.791 6.86886C116.677 6.38923 117.682 6.14941 118.807 6.14941C120.117 6.14941 121.298 6.47224 122.349 7.1179C123.419 7.76355 124.259 8.68592 124.867 9.885C125.495 11.0657 125.808 12.44 125.808 14.008C125.808 15.576 125.495 16.9688 124.867 18.1863C124.259 19.3854 123.419 20.317 122.349 20.9811C121.298 21.6452 120.117 21.9773 118.807 21.9773C117.682 21.9773 116.686 21.7467 115.819 21.2855C114.97 20.8243 114.279 20.2432 113.744 19.5422V29.0334H109.87V6.39845H113.744V8.61213ZM121.851 14.008C121.851 13.0857 121.658 12.2924 121.27 11.6283C120.901 10.9458 120.403 10.4292 119.776 10.0787C119.167 9.72819 118.503 9.55294 117.784 9.55294C117.083 9.55294 116.419 9.73742 115.791 10.1064C115.183 10.4569 114.684 10.9734 114.297 11.656C113.928 12.3385 113.744 13.141 113.744 14.0634C113.744 14.9857 113.928 15.7882 114.297 16.4707C114.684 17.1533 115.183 17.679 115.791 18.048C116.419 18.3985 117.083 18.5737 117.784 18.5737C118.503 18.5737 119.167 18.3893 119.776 18.0203C120.403 17.6514 120.901 17.1256 121.27 16.4431C121.658 15.7605 121.851 14.9488 121.851 14.008Z" fill="white"/>
<path d="M127.627 14.008C127.627 12.4584 127.932 11.0841 128.54 9.885C129.167 8.68592 130.007 7.76355 131.058 7.1179C132.128 6.47224 133.318 6.14941 134.628 6.14941C135.772 6.14941 136.768 6.38 137.616 6.84118C138.483 7.30237 139.175 7.88346 139.692 8.58446V6.39845H143.593V21.7282H139.692V19.4869C139.194 20.2063 138.502 20.8059 137.616 21.2855C136.749 21.7467 135.744 21.9773 134.6 21.9773C133.309 21.9773 132.128 21.6452 131.058 20.9811C130.007 20.317 129.167 19.3854 128.54 18.1863C127.932 16.9688 127.627 15.576 127.627 14.008ZM139.692 14.0634C139.692 13.1225 139.507 12.3201 139.138 11.656C138.769 10.9734 138.271 10.4569 137.644 10.1064C137.017 9.73742 136.344 9.55294 135.624 9.55294C134.905 9.55294 134.241 9.72819 133.632 10.0787C133.023 10.4292 132.525 10.9458 132.138 11.6283C131.769 12.2924 131.584 13.0857 131.584 14.008C131.584 14.9304 131.769 15.7421 132.138 16.4431C132.525 17.1256 133.023 17.6514 133.632 18.0203C134.259 18.3893 134.923 18.5737 135.624 18.5737C136.344 18.5737 137.017 18.3985 137.644 18.048C138.271 17.679 138.769 17.1625 139.138 16.4984C139.507 15.8159 139.692 15.0042 139.692 14.0634Z" fill="white"/>
<path d="M155.872 6.177C157.698 6.177 159.174 6.75809 160.299 7.92027C161.425 9.06401 161.987 10.6689 161.987 12.7351V21.7281H158.113V13.2608C158.113 12.0433 157.809 11.1117 157.2 10.466C156.591 9.8019 155.761 9.46985 154.71 9.46985C153.64 9.46985 152.791 9.8019 152.164 10.466C151.555 11.1117 151.251 12.0433 151.251 13.2608V21.7281H147.377V6.39837H151.251V8.30767C151.767 7.64356 152.422 7.12704 153.215 6.75809C154.027 6.3707 154.913 6.177 155.872 6.177Z" fill="white"/>
<path d="M180.337 6.39844L170.846 28.9779H166.723L170.043 21.3407L163.9 6.39844H168.245L172.201 17.1071L176.214 6.39844H180.337Z" fill="white"/>
<path d="M12.0032 28.8288C6.08841 28.8288 1.3125 24.0162 1.3125 18.1381C1.3125 12.2601 6.08841 7.44751 12.0032 7.44751C17.8812 7.44751 22.6939 12.2234 22.6939 18.1381C22.6571 24.0162 17.8812 28.8288 12.0032 28.8288Z" fill="#0328EE"/>
<path d="M27.8053 0.61499H13.7249C12.774 0.61499 12.0032 1.38584 12.0032 2.33672V16.4172C12.0032 17.3681 12.774 18.1389 13.7249 18.1389H27.8053C28.7562 18.1389 29.5271 17.3681 29.5271 16.4172V2.33672C29.5271 1.38584 28.7562 0.61499 27.8053 0.61499Z" fill="white"/>
</g>
<defs>
<clipPath id="clip0_1_17860">
<rect width="180" height="29" fill="white" transform="translate(0.5 0.53125)"/>
</clipPath>
</defs>
</svg>
